<?xml version="1.0" encoding="utf-8"?>
<!-- Generator: Adobe Illustrator 17.0.0, SVG Export Plug-In . SVG Version: 6.00 Build 0)  -->
<!DOCTYPE svg PUBLIC "-//W3C//DTD SVG 1.1//EN" "http://www.w3.org/Graphics/SVG/1.1/DTD/svg11.dtd">
<svg version="1.1" id="Layer_1" xmlns="http://www.w3.org/2000/svg" xmlns:xlink="http://www.w3.org/1999/xlink" x="0px" y="0px"
	 width="408px" height="1080px" viewBox="0 0 408 1080" enable-background="new 0 0 408 1080" xml:space="preserve">
<path d="M299.944,1019.565L299.944,1019.565C300.031,1019.652,300.031,1019.565,299.944,1019.565z"/>
<path d="M92.705,978.505C92.57,978.505,92.57,978.505,92.705,978.505c-0.136-0.136-0.136-0.136-0.136,0
	C92.57,978.505,92.57,978.505,92.705,978.505z"/>
<path fill="#F7C79F" d="M397.625,562.443c-3.513-4.685-4.685-14.054-10.54-17.567c-7.027-3.513-12.883-7.027-18.738-11.711
	c-7.027-7.027-8.198-21.081-10.54-30.45c-7.027-28.108-5.856-56.215-8.198-84.323c-1.171-15.225-8.198-29.279-12.883-43.333
	c-4.685-11.712-4.685-105.404-4.685-119.458c-1.171-12.883,0-29.279-8.198-38.648c-7.027-8.198-16.396-10.54-25.765-12.883
	c-11.712-3.513-63.242-19.91-60.9-35.135c1.171-3.513,8.198-28.108,11.712-29.279c5.856-1.171,7.027-21.081,8.198-25.765l0,0
	c2.342-7.027,3.513-15.225,3.513-23.423c0-33.963-24.594-62.071-53.873-62.071c-1.171,0-1.171,0-3.513,0c-1.171,0-2.342,0-2.342,0
	c-29.279,0-53.873,28.108-53.873,62.071c0,8.198,1.171,16.396,3.513,23.423l0,0c1.171,4.685,2.342,24.594,8.198,25.765
	c3.513,1.171,11.712,24.594,11.712,29.279c2.342,15.225-48.017,30.45-60.9,35.135c-9.369,2.342-18.738,5.856-25.765,12.883
	c-8.198,9.369-8.198,26.937-8.198,38.648c-1.171,12.883-1.171,106.575-4.685,119.458c-4.685,14.054-11.712,28.108-12.883,43.333
	c-3.513,28.108-1.171,56.215-8.198,84.323c-2.342,9.369-2.342,23.423-10.54,30.45c-5.856,4.685-12.883,8.198-18.738,11.711
	c-5.856,3.513-7.027,11.712-10.54,17.567c-2.342,3.513-16.396,18.738-5.856,18.738c12.883,0,12.883-18.738,22.252-19.91
	c-1.171,16.396-7.027,30.45-8.198,45.675c0,2.342,1.171,14.054,7.027,8.198c2.342-2.342,7.027-28.108,8.198-28.108
	c-1.171,7.027-3.513,24.594-4.685,31.621c0,3.513,5.856,7.027,8.198,3.513c2.342-4.685,8.198-31.621,10.54-33.963
	c-1.171,8.198-1.171,16.396-2.342,24.594c-1.171,3.513-1.171,5.856,0,9.369c2.342,2.342,7.027,2.342,8.198-1.171
	c1.171-7.027,3.513-15.225,4.685-22.252c0-2.342,1.171-19.91,4.685-8.198c1.171,4.685,0,15.225,3.513,18.738
	c7.027,7.027,7.027-11.712,7.027-14.054c-2.342-17.567,4.685-31.621,5.856-49.188c1.171-17.567,7.027-33.964,11.712-50.36
	c4.685-19.91,11.712-38.648,17.567-57.387c5.856-17.567,8.198-33.963,7.027-51.531c0-8.198,2.342-17.567,3.513-25.765
	c1.171-9.369,0-23.423,4.685-32.792c7.027,33.963,3.513,111.26,3.513,118.286c0,9.369-1.171,17.567-3.513,25.765
	c-2.342,17.567-7.027,35.135-9.369,52.702c-1.171,15.225-5.856,30.45-5.856,45.675c-1.171,18.738,2.342,38.648,1.171,57.386
	c0,10.54,7.027,101.89,9.369,106.575c2.342,4.685-7.027,69.098-7.027,72.611c-3.513,12.883-3.513,28.108-3.513,40.99
	c0,36.306,12.883,67.927,19.91,106.575c1.171,4.685,1.171,11.711,2.342,19.91c1.171,22.252-2.342,42.161-17.567,60.9
	c-18.738,23.423-17.567,25.765,8.198,39.819c2.342,1.171,7.027,3.513,10.54,3.513c3.513,0,5.856-1.171,9.369-3.513
	c15.225-21.081,26.937-42.161,25.765-71.44c0-12.883-1.171-28.108,0-39.819c3.513-33.963,5.856-69.098,7.027-71.44
	c2.342-8.198,7.027-53.873,4.685-69.098c-2.529-12.143-2.342-23.423,0-36.306c2.342-11.712,14.054-121.8,15.225-131.169
	c2.342-16.396,5.856-33.963,5.856-50.36c0-5.856-3.513-16.396,2.342-17.567c5.856,1.171,2.342,11.711,2.342,17.567
	c0,16.396,3.514,33.963,5.856,50.36c1.171,8.198,12.883,119.458,15.225,131.169c3.513,12.883,8.198,25.765,7.027,38.648
	c-2.342,15.225,2.342,60.9,4.685,69.098c1.171,2.342,3.513,37.477,7.027,71.44c1.171,11.712,0,26.937,0,39.819
	c-1.171,28.108,10.54,50.36,25.765,71.44c3.513,2.342,5.856,3.513,9.369,3.513s7.027-3.513,10.54-3.513
	c24.594-14.054,25.765-16.396,8.198-39.819c-15.225-18.738-17.567-38.648-17.567-60.9c0-7.027,1.171-14.054,2.342-19.91
	c7.027-38.648,21.081-70.269,19.91-106.575c0-14.054,0-29.279-3.513-40.99c-1.171-3.514-10.54-67.927-7.027-72.612
	c2.342-3.513,9.369-96.035,9.369-106.575c0-18.738,2.342-38.648,1.171-57.387c0-15.225-4.685-30.45-5.856-45.675
	c-2.342-17.567-7.027-35.135-9.369-52.702c-1.171-9.369-3.513-16.396-3.513-25.765c0-7.027-3.513-84.323,3.513-118.286
	c3.513,8.198,2.342,23.423,4.685,32.792c1.171,8.198,3.513,17.567,3.513,25.765c-1.171,17.567,1.171,33.963,7.027,51.531
	c7.027,18.738,12.883,37.477,17.567,57.387c4.685,16.396,11.712,33.963,11.712,50.36c1.171,17.567,8.198,31.621,5.856,49.188
	c0,2.342,0,21.081,7.027,14.054c3.513-3.513,2.342-14.054,3.513-18.738c3.513-11.711,3.513,4.685,3.513,8.198
	c1.171,7.027,2.342,15.225,4.685,22.252c1.171,3.513,5.856,4.685,8.198,1.171c1.171-3.513,1.171-5.856,0-9.369
	c-1.171-8.198-1.171-16.396-2.342-24.594c2.342,2.342,8.198,29.279,10.54,33.963c2.342,4.685,8.198,1.171,8.198-3.513
	c-1.171-7.027-3.513-24.594-4.685-31.621c1.171,0,5.856,25.765,8.198,28.108c4.685,5.856,7.027-5.856,7.027-8.198
	c-1.171-15.225-7.027-30.45-8.198-45.675c9.369,1.171,9.369,18.738,22.252,19.91C414.021,581.181,399.967,565.956,397.625,562.443z"
	/>
<path d="M160.696,180.357c-0.301,0-0.277,0.467,0.023,0.467C161.02,180.823,160.997,180.357,160.696,180.357z"/>
<path fill="#0FA0F8" d="M42.055,103.346"/>
<path fill="#996633" d="M259.265,70.104c-2.936-14.681-10.866-28.041-10.866-28.041c-5.126-16.889-13.213-21.58-13.213-21.58
	c1.908,1.907,5.43,10.717,5.43,10.717C231.073,16.226,219.97,8.713,219.97,8.713c1.285,12.399-12.973,11.623-12.973,11.623
	c11.798-2.323,9.447-10.981,9.447-10.981c-2.46,5.025-9.006,4.963-9.006,4.963c8.47-5.177,3.018-14.049,3.018-14.049
	C203.937,12.115,193.69,12.92,193.69,12.92c3.511-2.815,5.884-10.991,5.884-10.991s-9.107,9.885-27.521,22.079
	c-15.623,10.344-14.974,30.538-14.974,30.538c-19.968,8.219-11.167,49.864-11.167,49.864c3.616-1.045,7.478,2.684,7.478,2.684
	c-0.292-11.453,8.094-19.076,13.086-26.124c4.987-7.047,4.109-14.093,4.109-14.093c28.189,10.278,57.693-2.421,66.869,6.994
	c5.393,5.533,9.206,15.583,11.239,19.724c3.704,7.555,3.969,13.462,3.969,13.462c3.154-3.21,6.771-2.801,6.771-2.801
	C261.193,96.032,262.199,84.788,259.265,70.104z"/>
<path fill="#76D1FF" d="M117.975,470.299c-5.31,0.028-9.927,66.493-10.608,73.137c-6.096,59.512-8.433,127.132-3.923,186.661
	l100.38-3.418l-0.583-120.367l2.445-135.164C205.686,471.148,118.025,470.3,117.975,470.299z"/>
<path fill="#76D1FF" d="M293.064,470.299c5.31,0.028,9.927,66.493,10.608,73.137c6.096,59.512,8.433,127.132,3.923,186.661
	l-100.38-3.418l0.583-120.367l-2.445-135.164C205.353,471.148,293.014,470.3,293.064,470.299z"/>
<polygon fill="#76D1FF" points="202.931,588.466 207.393,689.934 259.359,611.308 222.239,512.175 176.091,512.175 "/>
<path fill="none" d="M265.334,189.172c0.498,0.151,0.996,0.302,1.494,0.452"/>
<path fill="#749BAF" d="M159.172,182.811c-0.495,0-0.578,0.771-0.08,0.771C159.586,183.581,159.67,182.811,159.172,182.811z"/>
<path fill="#EFEFEF" d="M156.121,182.358c0,0,53.421,16.89,92.964,0.267c0,0,28.782,14.064,48.848,20.222
	c0,0,27.643,2.708,31.876,25.711l6.679,109.462l-45.228,14.228l-3.952-22.917l13.713,181.308H110.745l11.3-183.651l-1.832,19.125
	l-53.34-11.637l7.436-97.37c0,0,2.373-18.879,10.548-23.995c0,0,5.751-4.693,12.233-6.894
	C97.09,206.217,152.635,189.58,156.121,182.358z"/>
</svg>
